<?xml version="1.0" encoding="UTF-8"?>
<!DOCTYPE svg PUBLIC "-//W3C//DTD SVG 1.1//EN" "http://www.w3.org/Graphics/SVG/1.1/DTD/svg11.dtd">
<svg version="1.2" width="124.23mm" height="124.23mm" viewBox="1789 1789 12423 12423" preserveAspectRatio="xMidYMid" fill-rule="evenodd" stroke-width="28.222" stroke-linejoin="round" xmlns="http://www.w3.org/2000/svg" xmlns:ooo="http://xml.openoffice.org/svg/export" xmlns:xlink="http://www.w3.org/1999/xlink" xmlns:presentation="http://sun.com/xmlns/staroffice/presentation" xmlns:smil="http://www.w3.org/2001/SMIL20/" xmlns:anim="urn:oasis:names:tc:opendocument:xmlns:animation:1.0" xml:space="preserve">
 <defs class="ClipPathGroup">
  <clipPath id="presentation_clip_path" clipPathUnits="userSpaceOnUse">
   <rect x="1789" y="1789" width="12423" height="12423"/>
  </clipPath>
 </defs>
 <defs class="TextShapeIndex">
  <g ooo:slide="id1" ooo:id-list="id3 id4 id5 id6 id7 id8 id9"/>
 </defs>
 <defs class="EmbeddedBulletChars">
  <g id="bullet-char-template(57356)" transform="scale(0.00048828125,-0.00048828125)">
   <path d="M 580,1141 L 1163,571 580,0 -4,571 580,1141 Z"/>
  </g>
  <g id="bullet-char-template(57354)" transform="scale(0.00048828125,-0.00048828125)">
   <path d="M 8,1128 L 1137,1128 1137,0 8,0 8,1128 Z"/>
  </g>
  <g id="bullet-char-template(10146)" transform="scale(0.00048828125,-0.00048828125)">
   <path d="M 174,0 L 602,739 174,1481 1456,739 174,0 Z M 1358,739 L 309,1346 659,739 1358,739 Z"/>
  </g>
  <g id="bullet-char-template(10132)" transform="scale(0.00048828125,-0.00048828125)">
   <path d="M 2015,739 L 1276,0 717,0 1260,543 174,543 174,936 1260,936 717,1481 1274,1481 2015,739 Z"/>
  </g>
  <g id="bullet-char-template(10007)" transform="scale(0.00048828125,-0.00048828125)">
   <path d="M 0,-2 C -7,14 -16,27 -25,37 L 356,567 C 262,823 215,952 215,954 215,979 228,992 255,992 264,992 276,990 289,987 310,991 331,999 354,1012 L 381,999 492,748 772,1049 836,1024 860,1049 C 881,1039 901,1025 922,1006 886,937 835,863 770,784 769,783 710,716 594,584 L 774,223 C 774,196 753,168 711,139 L 727,119 C 717,90 699,76 672,76 641,76 570,178 457,381 L 164,-76 C 142,-110 111,-127 72,-127 30,-127 9,-110 8,-76 1,-67 -2,-52 -2,-32 -2,-23 -1,-13 0,-2 Z"/>
  </g>
  <g id="bullet-char-template(10004)" transform="scale(0.00048828125,-0.00048828125)">
   <path d="M 285,-33 C 182,-33 111,30 74,156 52,228 41,333 41,471 41,549 55,616 82,672 116,743 169,778 240,778 293,778 328,747 346,684 L 369,508 C 377,444 397,411 428,410 L 1163,1116 C 1174,1127 1196,1133 1229,1133 1271,1133 1292,1118 1292,1087 L 1292,965 C 1292,929 1282,901 1262,881 L 442,47 C 390,-6 338,-33 285,-33 Z"/>
  </g>
  <g id="bullet-char-template(9679)" transform="scale(0.00048828125,-0.00048828125)">
   <path d="M 813,0 C 632,0 489,54 383,161 276,268 223,411 223,592 223,773 276,916 383,1023 489,1130 632,1184 813,1184 992,1184 1136,1130 1245,1023 1353,916 1407,772 1407,592 1407,412 1353,268 1245,161 1136,54 992,0 813,0 Z"/>
  </g>
  <g id="bullet-char-template(8226)" transform="scale(0.00048828125,-0.00048828125)">
   <path d="M 346,457 C 273,457 209,483 155,535 101,586 74,649 74,723 74,796 101,859 155,911 209,963 273,989 346,989 419,989 480,963 531,910 582,859 608,796 608,723 608,648 583,586 532,535 482,483 420,457 346,457 Z"/>
  </g>
  <g id="bullet-char-template(8211)" transform="scale(0.00048828125,-0.00048828125)">
   <path d="M -4,459 L 1135,459 1135,606 -4,606 -4,459 Z"/>
  </g>
 </defs>
 <defs class="TextEmbeddedBitmaps"/>
 <g class="SlideGroup">
  <g>
   <g id="id1" class="Slide" clip-path="url(#presentation_clip_path)">
    <g class="Page">
     <g class="Group">
      <g class="com.sun.star.drawing.CustomShape">
       <g id="id3">
        <rect class="BoundingBox" stroke="none" fill="none" x="1788" y="1788" width="12425" height="12425"/>
        <path fill="rgb(0,0,0)" stroke="none" d="M 8000,14000 L 2000,14000 2000,2000 14000,2000 14000,14000 8000,14000 Z"/>
        <path fill="none" stroke="rgb(0,0,0)" stroke-width="423" stroke-linejoin="round" stroke-linecap="round" d="M 8000,14000 L 2000,14000 2000,2000 14000,2000 14000,14000 8000,14000 Z"/>
       </g>
      </g>
      <g class="com.sun.star.drawing.CustomShape">
       <g id="id4">
        <rect class="BoundingBox" stroke="none" fill="none" x="3000" y="3000" width="2501" height="2501"/>
        <path fill="rgb(153,153,153)" stroke="none" d="M 4250,5500 L 3000,5500 3000,3000 5500,3000 5500,5500 4250,5500 Z"/>
       </g>
      </g>
      <g class="com.sun.star.drawing.CustomShape">
       <g id="id5">
        <rect class="BoundingBox" stroke="none" fill="none" x="5500" y="3000" width="2501" height="2501"/>
        <path fill="rgb(221,221,221)" stroke="none" d="M 6750,5500 L 5500,5500 5500,3000 8000,3000 8000,5500 6750,5500 Z"/>
       </g>
      </g>
      <g class="com.sun.star.drawing.CustomShape">
       <g id="id6">
        <rect class="BoundingBox" stroke="none" fill="none" x="3000" y="5500" width="2501" height="2501"/>
        <path fill="rgb(221,221,221)" stroke="none" d="M 4250,8000 L 3000,8000 3000,5500 5500,5500 5500,8000 4250,8000 Z"/>
       </g>
      </g>
      <g class="com.sun.star.drawing.CustomShape">
       <g id="id7">
        <rect class="BoundingBox" stroke="none" fill="none" x="5500" y="5500" width="2501" height="2501"/>
        <path fill="rgb(102,102,102)" stroke="none" d="M 6750,8000 L 5500,8000 5500,5500 8000,5500 8000,8000 6750,8000 Z"/>
       </g>
      </g>
      <g class="com.sun.star.drawing.CustomShape">
       <g id="id8">
        <rect class="BoundingBox" stroke="none" fill="none" x="8000" y="8000" width="5001" height="5001"/>
        <g>
         <defs>
          <pattern id="pattern1" x="8000" y="8000" width="5001" height="5001" patternUnits="userSpaceOnUse">
           <g transform="translate(-8000,-8000)">
            <path fill="rgb(28,28,28)" stroke="none" d="M 7999,7999 L 13001,7999 13001,13001 7999,13001 7999,7999 Z M 5521,10500 L 10500,5521 15479,10500 10500,15479 5521,10500 Z"/>
            <path fill="rgb(29,29,29)" stroke="none" d="M 5521,10500 L 10500,5521 15479,10500 10500,15479 5521,10500 Z M 5543,10500 L 10500,5543 15457,10500 10500,15457 5543,10500 Z"/>
            <path fill="rgb(30,30,30)" stroke="none" d="M 5543,10500 L 10500,5543 15457,10500 10500,15457 5543,10500 Z M 5564,10500 L 10500,5564 15436,10500 10500,15436 5564,10500 Z"/>
            <path fill="rgb(31,31,31)" stroke="none" d="M 5564,10500 L 10500,5564 15436,10500 10500,15436 5564,10500 Z M 5587,10500 L 10500,5587 15413,10500 10500,15413 5587,10500 Z"/>
            <path fill="rgb(32,32,32)" stroke="none" d="M 5587,10500 L 10500,5587 15413,10500 10500,15413 5587,10500 Z M 5608,10500 L 10500,5608 15392,10500 10500,15392 5608,10500 Z"/>
            <path fill="rgb(33,33,33)" stroke="none" d="M 5608,10500 L 10500,5608 15392,10500 10500,15392 5608,10500 Z M 5631,10500 L 10500,5631 15369,10500 10500,15369 5631,10500 Z"/>
            <path fill="rgb(34,34,34)" stroke="none" d="M 5631,10500 L 10500,5631 15369,10500 10500,15369 5631,10500 Z M 5653,10500 L 10500,5653 15347,10500 10500,15347 5653,10500 Z"/>
            <path fill="rgb(35,35,35)" stroke="none" d="M 5653,10500 L 10500,5653 15347,10500 10500,15347 5653,10500 Z M 5675,10500 L 10500,5675 15325,10500 10500,15325 5675,10500 Z"/>
            <path fill="rgb(36,36,36)" stroke="none" d="M 5675,10500 L 10500,5675 15325,10500 10500,15325 5675,10500 Z M 5697,10500 L 10500,5697 15303,10500 10500,15303 5697,10500 Z"/>
            <path fill="rgb(37,37,37)" stroke="none" d="M 5697,10500 L 10500,5697 15303,10500 10500,15303 5697,10500 Z M 5719,10500 L 10500,5719 15281,10500 10500,15281 5719,10500 Z"/>
            <path fill="rgb(38,38,38)" stroke="none" d="M 5719,10500 L 10500,5719 15281,10500 10500,15281 5719,10500 Z M 5741,10500 L 10500,5741 15259,10500 10500,15259 5741,10500 Z"/>
            <path fill="rgb(39,39,39)" stroke="none" d="M 5741,10500 L 10500,5741 15259,10500 10500,15259 5741,10500 Z M 5764,10500 L 10500,5764 15236,10500 10500,15236 5764,10500 Z"/>
            <path fill="rgb(40,40,40)" stroke="none" d="M 5764,10500 L 10500,5764 15236,10500 10500,15236 5764,10500 Z M 5785,10500 L 10500,5785 15215,10500 10500,15215 5785,10500 Z"/>
            <path fill="rgb(41,41,41)" stroke="none" d="M 5785,10500 L 10500,5785 15215,10500 10500,15215 5785,10500 Z M 5808,10500 L 10500,5808 15192,10500 10500,15192 5808,10500 Z"/>
            <path fill="rgb(42,42,42)" stroke="none" d="M 5808,10500 L 10500,5808 15192,10500 10500,15192 5808,10500 Z M 5829,10500 L 10500,5829 15171,10500 10500,15171 5829,10500 Z"/>
            <path fill="rgb(43,43,43)" stroke="none" d="M 5829,10500 L 10500,5829 15171,10500 10500,15171 5829,10500 Z M 5851,10500 L 10500,5851 15149,10500 10500,15149 5851,10500 Z"/>
            <path fill="rgb(44,44,44)" stroke="none" d="M 5851,10500 L 10500,5851 15149,10500 10500,15149 5851,10500 Z M 5873,10500 L 10500,5873 15127,10500 10500,15127 5873,10500 Z"/>
            <path fill="rgb(45,45,45)" stroke="none" d="M 5873,10500 L 10500,5873 15127,10500 10500,15127 5873,10500 Z M 5895,10500 L 10500,5895 15105,10500 10500,15105 5895,10500 Z"/>
            <path fill="rgb(46,46,46)" stroke="none" d="M 5895,10500 L 10500,5895 15105,10500 10500,15105 5895,10500 Z M 5918,10500 L 10500,5918 15082,10500 10500,15082 5918,10500 Z"/>
            <path fill="rgb(47,47,47)" stroke="none" d="M 5918,10500 L 10500,5918 15082,10500 10500,15082 5918,10500 Z M 5939,10500 L 10500,5939 15061,10500 10500,15061 5939,10500 Z"/>
            <path fill="rgb(48,48,48)" stroke="none" d="M 5939,10500 L 10500,5939 15061,10500 10500,15061 5939,10500 Z M 5962,10500 L 10500,5962 15038,10500 10500,15038 5962,10500 Z"/>
            <path fill="rgb(49,49,49)" stroke="none" d="M 5962,10500 L 10500,5962 15038,10500 10500,15038 5962,10500 Z M 5983,10500 L 10500,5983 15017,10500 10500,15017 5983,10500 Z"/>
            <path fill="rgb(50,50,50)" stroke="none" d="M 5983,10500 L 10500,5983 15017,10500 10500,15017 5983,10500 Z M 6006,10500 L 10500,6006 14994,10500 10500,14994 6006,10500 Z"/>
            <path fill="rgb(51,51,51)" stroke="none" d="M 6006,10500 L 10500,6006 14994,10500 10500,14994 6006,10500 Z M 6028,10500 L 10500,6028 14972,10500 10500,14972 6028,10500 Z"/>
            <path fill="rgb(52,52,52)" stroke="none" d="M 6028,10500 L 10500,6028 14972,10500 10500,14972 6028,10500 Z M 6049,10500 L 10500,6049 14951,10500 10500,14951 6049,10500 Z"/>
            <path fill="rgb(53,53,53)" stroke="none" d="M 6049,10500 L 10500,6049 14951,10500 10500,14951 6049,10500 Z M 6072,10500 L 10500,6072 14928,10500 10500,14928 6072,10500 Z"/>
            <path fill="rgb(54,54,54)" stroke="none" d="M 6072,10500 L 10500,6072 14928,10500 10500,14928 6072,10500 Z M 6093,10500 L 10500,6093 14907,10500 10500,14907 6093,10500 Z"/>
            <path fill="rgb(55,55,55)" stroke="none" d="M 6093,10500 L 10500,6093 14907,10500 10500,14907 6093,10500 Z M 6116,10500 L 10500,6116 14884,10500 10500,14884 6116,10500 Z"/>
            <path fill="rgb(56,56,56)" stroke="none" d="M 6116,10500 L 10500,6116 14884,10500 10500,14884 6116,10500 Z M 6137,10500 L 10500,6137 14863,10500 10500,14863 6137,10500 Z"/>
            <path fill="rgb(57,57,57)" stroke="none" d="M 6137,10500 L 10500,6137 14863,10500 10500,14863 6137,10500 Z M 6160,10500 L 10500,6160 14840,10500 10500,14840 6160,10500 Z"/>
            <path fill="rgb(58,58,58)" stroke="none" d="M 6160,10500 L 10500,6160 14840,10500 10500,14840 6160,10500 Z M 6182,10500 L 10500,6182 14818,10500 10500,14818 6182,10500 Z"/>
            <path fill="rgb(59,59,59)" stroke="none" d="M 6182,10500 L 10500,6182 14818,10500 10500,14818 6182,10500 Z M 6204,10500 L 10500,6204 14796,10500 10500,14796 6204,10500 Z"/>
            <path fill="rgb(60,60,60)" stroke="none" d="M 6204,10500 L 10500,6204 14796,10500 10500,14796 6204,10500 Z M 6226,10500 L 10500,6226 14774,10500 10500,14774 6226,10500 Z"/>
            <path fill="rgb(61,61,61)" stroke="none" d="M 6226,10500 L 10500,6226 14774,10500 10500,14774 6226,10500 Z M 6247,10500 L 10500,6247 14753,10500 10500,14753 6247,10500 Z"/>
            <path fill="rgb(62,62,62)" stroke="none" d="M 6247,10500 L 10500,6247 14753,10500 10500,14753 6247,10500 Z M 6270,10500 L 10500,6270 14730,10500 10500,14730 6270,10500 Z"/>
            <path fill="rgb(63,63,63)" stroke="none" d="M 6270,10500 L 10500,6270 14730,10500 10500,14730 6270,10500 Z M 6293,10500 L 10500,6293 14707,10500 10500,14707 6293,10500 Z"/>
            <path fill="rgb(64,64,64)" stroke="none" d="M 6293,10500 L 10500,6293 14707,10500 10500,14707 6293,10500 Z M 6314,10500 L 10500,6314 14686,10500 10500,14686 6314,10500 Z"/>
            <path fill="rgb(65,65,65)" stroke="none" d="M 6314,10500 L 10500,6314 14686,10500 10500,14686 6314,10500 Z M 6337,10500 L 10500,6337 14663,10500 10500,14663 6337,10500 Z"/>
            <path fill="rgb(66,66,66)" stroke="none" d="M 6337,10500 L 10500,6337 14663,10500 10500,14663 6337,10500 Z M 6358,10500 L 10500,6358 14642,10500 10500,14642 6358,10500 Z"/>
            <path fill="rgb(67,67,67)" stroke="none" d="M 6358,10500 L 10500,6358 14642,10500 10500,14642 6358,10500 Z M 6380,10500 L 10500,6380 14620,10500 10500,14620 6380,10500 Z"/>
            <path fill="rgb(68,68,68)" stroke="none" d="M 6380,10500 L 10500,6380 14620,10500 10500,14620 6380,10500 Z M 6402,10500 L 10500,6402 14598,10500 10500,14598 6402,10500 Z"/>
            <path fill="rgb(69,69,69)" stroke="none" d="M 6402,10500 L 10500,6402 14598,10500 10500,14598 6402,10500 Z M 6424,10500 L 10500,6424 14576,10500 10500,14576 6424,10500 Z"/>
            <path fill="rgb(70,70,70)" stroke="none" d="M 6424,10500 L 10500,6424 14576,10500 10500,14576 6424,10500 Z M 6447,10500 L 10500,6447 14553,10500 10500,14553 6447,10500 Z"/>
            <path fill="rgb(71,71,71)" stroke="none" d="M 6447,10500 L 10500,6447 14553,10500 10500,14553 6447,10500 Z M 6468,10500 L 10500,6468 14532,10500 10500,14532 6468,10500 Z"/>
            <path fill="rgb(72,72,72)" stroke="none" d="M 6468,10500 L 10500,6468 14532,10500 10500,14532 6468,10500 Z M 6491,10500 L 10500,6491 14509,10500 10500,14509 6491,10500 Z"/>
            <path fill="rgb(73,73,73)" stroke="none" d="M 6491,10500 L 10500,6491 14509,10500 10500,14509 6491,10500 Z M 6512,10500 L 10500,6512 14488,10500 10500,14488 6512,10500 Z"/>
            <path fill="rgb(74,74,74)" stroke="none" d="M 6512,10500 L 10500,6512 14488,10500 10500,14488 6512,10500 Z M 6535,10500 L 10500,6535 14465,10500 10500,14465 6535,10500 Z"/>
            <path fill="rgb(75,75,75)" stroke="none" d="M 6535,10500 L 10500,6535 14465,10500 10500,14465 6535,10500 Z M 6557,10500 L 10500,6557 14443,10500 10500,14443 6557,10500 Z"/>
            <path fill="rgb(76,76,76)" stroke="none" d="M 6557,10500 L 10500,6557 14443,10500 10500,14443 6557,10500 Z M 6578,10500 L 10500,6578 14422,10500 10500,14422 6578,10500 Z"/>
            <path fill="rgb(77,77,77)" stroke="none" d="M 6578,10500 L 10500,6578 14422,10500 10500,14422 6578,10500 Z M 6601,10500 L 10500,6601 14399,10500 10500,14399 6601,10500 Z"/>
            <path fill="rgb(78,78,78)" stroke="none" d="M 6601,10500 L 10500,6601 14399,10500 10500,14399 6601,10500 Z M 6622,10500 L 10500,6622 14378,10500 10500,14378 6622,10500 Z"/>
            <path fill="rgb(79,79,79)" stroke="none" d="M 6622,10500 L 10500,6622 14378,10500 10500,14378 6622,10500 Z M 6645,10500 L 10500,6645 14355,10500 10500,14355 6645,10500 Z"/>
            <path fill="rgb(80,80,80)" stroke="none" d="M 6645,10500 L 10500,6645 14355,10500 10500,14355 6645,10500 Z M 6666,10500 L 10500,6666 14334,10500 10500,14334 6666,10500 Z"/>
            <path fill="rgb(81,81,81)" stroke="none" d="M 6666,10500 L 10500,6666 14334,10500 10500,14334 6666,10500 Z M 6689,10500 L 10500,6689 14311,10500 10500,14311 6689,10500 Z"/>
            <path fill="rgb(82,82,82)" stroke="none" d="M 6689,10500 L 10500,6689 14311,10500 10500,14311 6689,10500 Z M 6711,10500 L 10500,6711 14289,10500 10500,14289 6711,10500 Z"/>
            <path fill="rgb(83,83,83)" stroke="none" d="M 6711,10500 L 10500,6711 14289,10500 10500,14289 6711,10500 Z M 6733,10500 L 10500,6733 14267,10500 10500,14267 6733,10500 Z"/>
            <path fill="rgb(84,84,84)" stroke="none" d="M 6733,10500 L 10500,6733 14267,10500 10500,14267 6733,10500 Z M 6755,10500 L 10500,6755 14245,10500 10500,14245 6755,10500 Z"/>
            <path fill="rgb(85,85,85)" stroke="none" d="M 6755,10500 L 10500,6755 14245,10500 10500,14245 6755,10500 Z M 6776,10500 L 10500,6776 14224,10500 10500,14224 6776,10500 Z"/>
            <path fill="rgb(86,86,86)" stroke="none" d="M 6776,10500 L 10500,6776 14224,10500 10500,14224 6776,10500 Z M 6799,10500 L 10500,6799 14201,10500 10500,14201 6799,10500 Z"/>
            <path fill="rgb(87,87,87)" stroke="none" d="M 6799,10500 L 10500,6799 14201,10500 10500,14201 6799,10500 Z M 6822,10500 L 10500,6822 14178,10500 10500,14178 6822,10500 Z"/>
            <path fill="rgb(88,88,88)" stroke="none" d="M 6822,10500 L 10500,6822 14178,10500 10500,14178 6822,10500 Z M 6843,10500 L 10500,6843 14157,10500 10500,14157 6843,10500 Z"/>
            <path fill="rgb(89,89,89)" stroke="none" d="M 6843,10500 L 10500,6843 14157,10500 10500,14157 6843,10500 Z M 6865,10500 L 10500,6865 14135,10500 10500,14135 6865,10500 Z"/>
            <path fill="rgb(90,90,90)" stroke="none" d="M 6865,10500 L 10500,6865 14135,10500 10500,14135 6865,10500 Z M 6887,10500 L 10500,6887 14113,10500 10500,14113 6887,10500 Z"/>
            <path fill="rgb(91,91,91)" stroke="none" d="M 6887,10500 L 10500,6887 14113,10500 10500,14113 6887,10500 Z M 6909,10500 L 10500,6909 14091,10500 10500,14091 6909,10500 Z"/>
            <path fill="rgb(92,92,92)" stroke="none" d="M 6909,10500 L 10500,6909 14091,10500 10500,14091 6909,10500 Z M 6931,10500 L 10500,6931 14069,10500 10500,14069 6931,10500 Z"/>
            <path fill="rgb(93,93,93)" stroke="none" d="M 6931,10500 L 10500,6931 14069,10500 10500,14069 6931,10500 Z M 6953,10500 L 10500,6953 14047,10500 10500,14047 6953,10500 Z"/>
            <path fill="rgb(94,94,94)" stroke="none" d="M 6953,10500 L 10500,6953 14047,10500 10500,14047 6953,10500 Z M 6974,10500 L 10499,6975 14024,10500 10499,14025 6974,10500 Z"/>
            <path fill="rgb(95,95,95)" stroke="none" d="M 6974,10500 L 10499,6975 14024,10500 10499,14025 6974,10500 Z M 6996,10500 L 10499,6996 14003,10500 10499,14004 6996,10500 Z"/>
            <path fill="rgb(96,96,96)" stroke="none" d="M 6996,10500 L 10499,6996 14003,10500 10499,14004 6996,10500 Z M 7018,10500 L 10499,7019 13980,10500 10499,13981 7018,10500 Z"/>
            <path fill="rgb(97,97,97)" stroke="none" d="M 7018,10500 L 10499,7019 13980,10500 10499,13981 7018,10500 Z M 7039,10500 L 10499,7040 13959,10500 10499,13960 7039,10500 Z"/>
            <path fill="rgb(98,98,98)" stroke="none" d="M 7039,10500 L 10499,7040 13959,10500 10499,13960 7039,10500 Z M 7062,10500 L 10499,7063 13937,10500 10499,13937 7062,10500 Z"/>
            <path fill="rgb(99,99,99)" stroke="none" d="M 7062,10500 L 10499,7063 13937,10500 10499,13937 7062,10500 Z M 7085,10500 L 10499,7085 13914,10500 10499,13915 7085,10500 Z"/>
            <path fill="rgb(100,100,100)" stroke="none" d="M 7085,10500 L 10499,7085 13914,10500 10499,13915 7085,10500 Z M 7106,10500 L 10499,7107 13893,10500 10499,13893 7106,10500 Z"/>
            <path fill="rgb(101,101,101)" stroke="none" d="M 7106,10500 L 10499,7107 13893,10500 10499,13893 7106,10500 Z M 7129,10500 L 10499,7129 13870,10500 10499,13871 7129,10500 Z"/>
            <path fill="rgb(102,102,102)" stroke="none" d="M 7129,10500 L 10499,7129 13870,10500 10499,13871 7129,10500 Z M 7150,10500 L 10499,7150 13849,10500 10499,13850 7150,10500 Z"/>
            <path fill="rgb(103,103,103)" stroke="none" d="M 7150,10500 L 10499,7150 13849,10500 10499,13850 7150,10500 Z M 7172,10500 L 10499,7173 13826,10500 10499,13827 7172,10500 Z"/>
            <path fill="rgb(104,104,104)" stroke="none" d="M 7172,10500 L 10499,7173 13826,10500 10499,13827 7172,10500 Z M 7194,10500 L 10499,7194 13805,10500 10499,13806 7194,10500 Z"/>
            <path fill="rgb(105,105,105)" stroke="none" d="M 7194,10500 L 10499,7194 13805,10500 10499,13806 7194,10500 Z M 7216,10500 L 10499,7217 13782,10500 10499,13783 7216,10500 Z"/>
            <path fill="rgb(106,106,106)" stroke="none" d="M 7216,10500 L 10499,7217 13782,10500 10499,13783 7216,10500 Z M 7239,10500 L 10499,7240 13760,10500 10499,13760 7239,10500 Z"/>
            <path fill="rgb(107,107,107)" stroke="none" d="M 7239,10500 L 10499,7240 13760,10500 10499,13760 7239,10500 Z M 7260,10500 L 10499,7261 13739,10500 10499,13739 7260,10500 Z"/>
            <path fill="rgb(108,108,108)" stroke="none" d="M 7260,10500 L 10499,7261 13739,10500 10499,13739 7260,10500 Z M 7283,10500 L 10499,7283 13716,10500 10499,13717 7283,10500 Z"/>
            <path fill="rgb(109,109,109)" stroke="none" d="M 7283,10500 L 10499,7283 13716,10500 10499,13717 7283,10500 Z M 7304,10500 L 10499,7305 13695,10500 10499,13695 7304,10500 Z"/>
            <path fill="rgb(110,110,110)" stroke="none" d="M 7304,10500 L 10499,7305 13695,10500 10499,13695 7304,10500 Z M 7327,10500 L 10499,7327 13672,10500 10499,13673 7327,10500 Z"/>
            <path fill="rgb(111,111,111)" stroke="none" d="M 7327,10500 L 10499,7327 13672,10500 10499,13673 7327,10500 Z M 7349,10500 L 10499,7350 13649,10500 10499,13650 7349,10500 Z"/>
            <path fill="rgb(112,112,112)" stroke="none" d="M 7349,10500 L 10499,7350 13649,10500 10499,13650 7349,10500 Z M 7370,10500 L 10499,7371 13628,10500 10499,13629 7370,10500 Z"/>
            <path fill="rgb(113,113,113)" stroke="none" d="M 7370,10500 L 10499,7371 13628,10500 10499,13629 7370,10500 Z M 7393,10500 L 10499,7394 13606,10500 10499,13606 7393,10500 Z"/>
            <path fill="rgb(114,114,114)" stroke="none" d="M 7393,10500 L 10499,7394 13606,10500 10499,13606 7393,10500 Z M 7414,10500 L 10499,7415 13584,10500 10499,13585 7414,10500 Z"/>
            <path fill="rgb(115,115,115)" stroke="none" d="M 7414,10500 L 10499,7415 13584,10500 10499,13585 7414,10500 Z M 7437,10500 L 10499,7438 13562,10500 10499,13562 7437,10500 Z"/>
            <path fill="rgb(116,116,116)" stroke="none" d="M 7437,10500 L 10499,7438 13562,10500 10499,13562 7437,10500 Z M 7458,10500 L 10499,7459 13541,10500 10499,13541 7458,10500 Z"/>
            <path fill="rgb(117,117,117)" stroke="none" d="M 7458,10500 L 10499,7459 13541,10500 10499,13541 7458,10500 Z M 7481,10500 L 10499,7481 13518,10500 10499,13519 7481,10500 Z"/>
            <path fill="rgb(118,118,118)" stroke="none" d="M 7481,10500 L 10499,7481 13518,10500 10499,13519 7481,10500 Z M 7503,10500 L 10499,7504 13495,10500 10499,13496 7503,10500 Z"/>
            <path fill="rgb(119,119,119)" stroke="none" d="M 7503,10500 L 10499,7504 13495,10500 10499,13496 7503,10500 Z M 7524,10500 L 10499,7525 13474,10500 10499,13475 7524,10500 Z"/>
            <path fill="rgb(120,120,120)" stroke="none" d="M 7524,10500 L 10499,7525 13474,10500 10499,13475 7524,10500 Z M 7547,10500 L 10499,7548 13451,10500 10499,13452 7547,10500 Z"/>
            <path fill="rgb(121,121,121)" stroke="none" d="M 7547,10500 L 10499,7548 13451,10500 10499,13452 7547,10500 Z M 7568,10500 L 10499,7569 13430,10500 10499,13431 7568,10500 Z"/>
            <path fill="rgb(122,122,122)" stroke="none" d="M 7568,10500 L 10499,7569 13430,10500 10499,13431 7568,10500 Z M 7591,10500 L 10499,7592 13408,10500 10499,13408 7591,10500 Z"/>
            <path fill="rgb(123,123,123)" stroke="none" d="M 7591,10500 L 10499,7592 13408,10500 10499,13408 7591,10500 Z M 7614,10500 L 10499,7614 13385,10500 10499,13386 7614,10500 Z"/>
            <path fill="rgb(124,124,124)" stroke="none" d="M 7614,10500 L 10499,7614 13385,10500 10499,13386 7614,10500 Z M 7635,10500 L 10499,7636 13364,10500 10499,13364 7635,10500 Z"/>
            <path fill="rgb(125,125,125)" stroke="none" d="M 7635,10500 L 10499,7636 13364,10500 10499,13364 7635,10500 Z M 7657,10500 L 10499,7658 13341,10500 10499,13342 7657,10500 Z"/>
            <path fill="rgb(126,126,126)" stroke="none" d="M 7657,10500 L 10499,7658 13341,10500 10499,13342 7657,10500 Z M 7679,10500 L 10499,7679 13320,10500 10499,13321 7679,10500 Z"/>
            <path fill="rgb(127,127,127)" stroke="none" d="M 7679,10500 L 10499,7679 13320,10500 10499,13321 7679,10500 Z M 7701,10500 L 10499,7702 13297,10500 10499,13298 7701,10500 Z"/>
            <path fill="rgb(128,128,128)" stroke="none" d="M 7701,10500 L 10499,7702 13297,10500 10499,13298 7701,10500 Z M 7722,10500 L 10499,7723 13276,10500 10499,13277 7722,10500 Z"/>
            <path fill="rgb(129,129,129)" stroke="none" d="M 7722,10500 L 10499,7723 13276,10500 10499,13277 7722,10500 Z M 7745,10500 L 10499,7746 13253,10500 10499,13254 7745,10500 Z"/>
            <path fill="rgb(130,130,130)" stroke="none" d="M 7745,10500 L 10499,7746 13253,10500 10499,13254 7745,10500 Z M 7768,10500 L 10499,7768 13231,10500 10499,13232 7768,10500 Z"/>
            <path fill="rgb(131,131,131)" stroke="none" d="M 7768,10500 L 10499,7768 13231,10500 10499,13232 7768,10500 Z M 7789,10500 L 10499,7790 13210,10500 10499,13210 7789,10500 Z"/>
            <path fill="rgb(132,132,132)" stroke="none" d="M 7789,10500 L 10499,7790 13210,10500 10499,13210 7789,10500 Z M 7812,10500 L 10499,7812 13187,10500 10499,13188 7812,10500 Z"/>
            <path fill="rgb(133,133,133)" stroke="none" d="M 7812,10500 L 10499,7812 13187,10500 10499,13188 7812,10500 Z M 7833,10500 L 10499,7834 13166,10500 10499,13166 7833,10500 Z"/>
            <path fill="rgb(134,134,134)" stroke="none" d="M 7833,10500 L 10499,7834 13166,10500 10499,13166 7833,10500 Z M 7855,10500 L 10499,7856 13143,10500 10499,13144 7855,10500 Z"/>
            <path fill="rgb(135,135,135)" stroke="none" d="M 7855,10500 L 10499,7856 13143,10500 10499,13144 7855,10500 Z M 7878,10500 L 10499,7879 13121,10500 10499,13121 7878,10500 Z"/>
            <path fill="rgb(136,136,136)" stroke="none" d="M 7878,10500 L 10499,7879 13121,10500 10499,13121 7878,10500 Z M 7899,10500 L 10499,7900 13099,10500 10499,13100 7899,10500 Z"/>
            <path fill="rgb(137,137,137)" stroke="none" d="M 7899,10500 L 10499,7900 13099,10500 10499,13100 7899,10500 Z M 7922,10500 L 10499,7923 13077,10500 10499,13077 7922,10500 Z"/>
            <path fill="rgb(138,138,138)" stroke="none" d="M 7922,10500 L 10499,7923 13077,10500 10499,13077 7922,10500 Z M 7943,10500 L 10499,7944 13055,10500 10499,13056 7943,10500 Z"/>
            <path fill="rgb(139,139,139)" stroke="none" d="M 7943,10500 L 10499,7944 13055,10500 10499,13056 7943,10500 Z M 7966,10500 L 10499,7966 13033,10500 10499,13034 7966,10500 Z"/>
            <path fill="rgb(140,140,140)" stroke="none" d="M 7966,10500 L 10499,7966 13033,10500 10499,13034 7966,10500 Z M 7987,10500 L 10499,7988 13012,10500 10499,13012 7987,10500 Z"/>
            <path fill="rgb(141,141,141)" stroke="none" d="M 7987,10500 L 10499,7988 13012,10500 10499,13012 7987,10500 Z M 8010,10500 L 10499,8010 12989,10500 10499,12990 8010,10500 Z"/>
            <path fill="rgb(142,142,142)" stroke="none" d="M 8010,10500 L 10499,8010 12989,10500 10499,12990 8010,10500 Z M 8032,10500 L 10499,8033 12966,10500 10499,12967 8032,10500 Z"/>
            <path fill="rgb(143,143,143)" stroke="none" d="M 8032,10500 L 10499,8033 12966,10500 10499,12967 8032,10500 Z M 8053,10500 L 10499,8054 12945,10500 10499,12946 8053,10500 Z"/>
            <path fill="rgb(144,144,144)" stroke="none" d="M 8053,10500 L 10499,8054 12945,10500 10499,12946 8053,10500 Z M 8076,10500 L 10499,8077 12923,10500 10499,12923 8076,10500 Z"/>
            <path fill="rgb(145,145,145)" stroke="none" d="M 8076,10500 L 10499,8077 12923,10500 10499,12923 8076,10500 Z M 8097,10500 L 10499,8098 12901,10500 10499,12902 8097,10500 Z"/>
            <path fill="rgb(146,146,146)" stroke="none" d="M 8097,10500 L 10499,8098 12901,10500 10499,12902 8097,10500 Z M 8120,10500 L 10499,8121 12879,10500 10499,12879 8120,10500 Z"/>
            <path fill="rgb(147,147,147)" stroke="none" d="M 8120,10500 L 10499,8121 12879,10500 10499,12879 8120,10500 Z M 8143,10500 L 10499,8143 12856,10500 10499,12857 8143,10500 Z"/>
            <path fill="rgb(148,148,148)" stroke="none" d="M 8143,10500 L 10499,8143 12856,10500 10499,12857 8143,10500 Z M 8164,10500 L 10499,8164 12835,10500 10499,12836 8164,10500 Z"/>
            <path fill="rgb(149,149,149)" stroke="none" d="M 8164,10500 L 10499,8164 12835,10500 10499,12836 8164,10500 Z M 8186,10500 L 10499,8187 12812,10500 10499,12813 8186,10500 Z"/>
            <path fill="rgb(150,150,150)" stroke="none" d="M 8186,10500 L 10499,8187 12812,10500 10499,12813 8186,10500 Z M 8208,10500 L 10499,8208 12791,10500 10499,12792 8208,10500 Z"/>
            <path fill="rgb(151,151,151)" stroke="none" d="M 8208,10500 L 10499,8208 12791,10500 10499,12792 8208,10500 Z M 8230,10500 L 10499,8231 12768,10500 10499,12769 8230,10500 Z"/>
            <path fill="rgb(152,152,152)" stroke="none" d="M 8230,10500 L 10499,8231 12768,10500 10499,12769 8230,10500 Z M 8251,10500 L 10499,8252 12747,10500 10499,12748 8251,10500 Z"/>
            <path fill="rgb(153,153,153)" stroke="none" d="M 8251,10500 L 10499,8252 12747,10500 10499,12748 8251,10500 Z M 8274,10500 L 10499,8275 12725,10500 10499,12725 8274,10500 Z"/>
            <path fill="rgb(154,154,154)" stroke="none" d="M 8274,10500 L 10499,8275 12725,10500 10499,12725 8274,10500 Z M 8297,10500 L 10499,8297 12702,10500 10499,12703 8297,10500 Z"/>
            <path fill="rgb(155,155,155)" stroke="none" d="M 8297,10500 L 10499,8297 12702,10500 10499,12703 8297,10500 Z M 8318,10500 L 10499,8319 12681,10500 10499,12681 8318,10500 Z"/>
            <path fill="rgb(156,156,156)" stroke="none" d="M 8318,10500 L 10499,8319 12681,10500 10499,12681 8318,10500 Z M 8340,10500 L 10499,8341 12658,10500 10499,12659 8340,10500 Z"/>
            <path fill="rgb(157,157,157)" stroke="none" d="M 8340,10500 L 10499,8341 12658,10500 10499,12659 8340,10500 Z M 8362,10500 L 10499,8362 12637,10500 10499,12638 8362,10500 Z"/>
            <path fill="rgb(158,158,158)" stroke="none" d="M 8362,10500 L 10499,8362 12637,10500 10499,12638 8362,10500 Z M 8384,10500 L 10499,8385 12614,10500 10499,12615 8384,10500 Z"/>
            <path fill="rgb(159,159,159)" stroke="none" d="M 8384,10500 L 10499,8385 12614,10500 10499,12615 8384,10500 Z M 8407,10500 L 10499,8408 12592,10500 10499,12592 8407,10500 Z"/>
            <path fill="rgb(160,160,160)" stroke="none" d="M 8407,10500 L 10499,8408 12592,10500 10499,12592 8407,10500 Z M 8428,10500 L 10499,8429 12570,10500 10499,12571 8428,10500 Z"/>
            <path fill="rgb(161,161,161)" stroke="none" d="M 8428,10500 L 10499,8429 12570,10500 10499,12571 8428,10500 Z M 8451,10500 L 10499,8452 12548,10500 10499,12548 8451,10500 Z"/>
            <path fill="rgb(162,162,162)" stroke="none" d="M 8451,10500 L 10499,8452 12548,10500 10499,12548 8451,10500 Z M 8472,10500 L 10499,8473 12527,10500 10499,12527 8472,10500 Z"/>
            <path fill="rgb(163,163,163)" stroke="none" d="M 8472,10500 L 10499,8473 12527,10500 10499,12527 8472,10500 Z M 8495,10500 L 10499,8495 12504,10500 10499,12505 8495,10500 Z"/>
            <path fill="rgb(164,164,164)" stroke="none" d="M 8495,10500 L 10499,8495 12504,10500 10499,12505 8495,10500 Z M 8516,10500 L 10499,8517 12483,10500 10499,12483 8516,10500 Z"/>
            <path fill="rgb(165,165,165)" stroke="none" d="M 8516,10500 L 10499,8517 12483,10500 10499,12483 8516,10500 Z M 8538,10500 L 10499,8539 12460,10500 10499,12461 8538,10500 Z"/>
            <path fill="rgb(166,166,166)" stroke="none" d="M 8538,10500 L 10499,8539 12460,10500 10499,12461 8538,10500 Z M 8561,10500 L 10499,8562 12437,10500 10499,12438 8561,10500 Z"/>
            <path fill="rgb(167,167,167)" stroke="none" d="M 8561,10500 L 10499,8562 12437,10500 10499,12438 8561,10500 Z M 8582,10500 L 10499,8583 12416,10500 10499,12417 8582,10500 Z"/>
            <path fill="rgb(168,168,168)" stroke="none" d="M 8582,10500 L 10499,8583 12416,10500 10499,12417 8582,10500 Z M 8605,10500 L 10499,8606 12394,10500 10499,12394 8605,10500 Z"/>
            <path fill="rgb(169,169,169)" stroke="none" d="M 8605,10500 L 10499,8606 12394,10500 10499,12394 8605,10500 Z M 8626,10500 L 10499,8627 12372,10500 10499,12373 8626,10500 Z"/>
            <path fill="rgb(170,170,170)" stroke="none" d="M 8626,10500 L 10499,8627 12372,10500 10499,12373 8626,10500 Z M 8649,10500 L 10499,8650 12350,10500 10499,12350 8649,10500 Z"/>
            <path fill="rgb(171,171,171)" stroke="none" d="M 8649,10500 L 10499,8650 12350,10500 10499,12350 8649,10500 Z M 8671,10500 L 10499,8672 12327,10500 10499,12328 8671,10500 Z"/>
            <path fill="rgb(172,172,172)" stroke="none" d="M 8671,10500 L 10499,8672 12327,10500 10499,12328 8671,10500 Z M 8693,10500 L 10499,8693 12306,10500 10499,12307 8693,10500 Z"/>
            <path fill="rgb(173,173,173)" stroke="none" d="M 8693,10500 L 10499,8693 12306,10500 10499,12307 8693,10500 Z M 8715,10500 L 10499,8716 12283,10500 10499,12284 8715,10500 Z"/>
            <path fill="rgb(174,174,174)" stroke="none" d="M 8715,10500 L 10499,8716 12283,10500 10499,12284 8715,10500 Z M 8736,10500 L 10499,8737 12262,10500 10499,12263 8736,10500 Z"/>
            <path fill="rgb(175,175,175)" stroke="none" d="M 8736,10500 L 10499,8737 12262,10500 10499,12263 8736,10500 Z M 8759,10500 L 10499,8760 12239,10500 10499,12240 8759,10500 Z"/>
            <path fill="rgb(176,176,176)" stroke="none" d="M 8759,10500 L 10499,8760 12239,10500 10499,12240 8759,10500 Z M 8780,10500 L 10499,8781 12218,10500 10499,12219 8780,10500 Z"/>
            <path fill="rgb(177,177,177)" stroke="none" d="M 8780,10500 L 10499,8781 12218,10500 10499,12219 8780,10500 Z M 8803,10500 L 10499,8804 12196,10500 10499,12196 8803,10500 Z"/>
            <path fill="rgb(178,178,178)" stroke="none" d="M 8803,10500 L 10499,8804 12196,10500 10499,12196 8803,10500 Z M 8826,10500 L 10499,8826 12173,10500 10499,12174 8826,10500 Z"/>
            <path fill="rgb(179,179,179)" stroke="none" d="M 8826,10500 L 10499,8826 12173,10500 10499,12174 8826,10500 Z M 8847,10500 L 10499,8847 12152,10500 10499,12153 8847,10500 Z"/>
            <path fill="rgb(180,180,180)" stroke="none" d="M 8847,10500 L 10499,8847 12152,10500 10499,12153 8847,10500 Z M 8869,10500 L 10499,8870 12129,10500 10499,12130 8869,10500 Z"/>
            <path fill="rgb(181,181,181)" stroke="none" d="M 8869,10500 L 10499,8870 12129,10500 10499,12130 8869,10500 Z M 8891,10500 L 10499,8891 12108,10500 10499,12109 8891,10500 Z"/>
            <path fill="rgb(182,182,182)" stroke="none" d="M 8891,10500 L 10499,8891 12108,10500 10499,12109 8891,10500 Z M 8913,10500 L 10499,8914 12085,10500 10499,12086 8913,10500 Z"/>
            <path fill="rgb(183,183,183)" stroke="none" d="M 8913,10500 L 10499,8914 12085,10500 10499,12086 8913,10500 Z M 8936,10500 L 10499,8937 12063,10500 10499,12063 8936,10500 Z"/>
            <path fill="rgb(184,184,184)" stroke="none" d="M 8936,10500 L 10499,8937 12063,10500 10499,12063 8936,10500 Z M 8957,10500 L 10499,8958 12041,10500 10499,12042 8957,10500 Z"/>
            <path fill="rgb(185,185,185)" stroke="none" d="M 8957,10500 L 10499,8958 12041,10500 10499,12042 8957,10500 Z M 8980,10500 L 10499,8980 12019,10500 10499,12020 8980,10500 Z"/>
            <path fill="rgb(186,186,186)" stroke="none" d="M 8980,10500 L 10499,8980 12019,10500 10499,12020 8980,10500 Z M 9001,10500 L 10499,9002 11998,10500 10499,11998 9001,10500 Z"/>
            <path fill="rgb(187,187,187)" stroke="none" d="M 9001,10500 L 10499,9002 11998,10500 10499,11998 9001,10500 Z M 9024,10500 L 10499,9024 11975,10500 10499,11976 9024,10500 Z"/>
            <path fill="rgb(188,188,188)" stroke="none" d="M 9024,10500 L 10499,9024 11975,10500 10499,11976 9024,10500 Z M 9045,10500 L 10499,9045 11954,10500 10499,11955 9045,10500 Z"/>
            <path fill="rgb(189,189,189)" stroke="none" d="M 9045,10500 L 10499,9045 11954,10500 10499,11955 9045,10500 Z M 9067,10500 L 10499,9068 11931,10500 10499,11932 9067,10500 Z"/>
            <path fill="rgb(190,190,190)" stroke="none" d="M 9067,10500 L 10499,9068 11931,10500 10499,11932 9067,10500 Z M 9090,10500 L 10499,9091 11909,10500 10499,11909 9090,10500 Z"/>
            <path fill="rgb(191,191,191)" stroke="none" d="M 9090,10500 L 10499,9091 11909,10500 10499,11909 9090,10500 Z M 9111,10500 L 10499,9112 11887,10500 10499,11888 9111,10500 Z"/>
            <path fill="rgb(192,192,192)" stroke="none" d="M 9111,10500 L 10499,9112 11887,10500 10499,11888 9111,10500 Z M 9134,10500 L 10499,9135 11865,10500 10499,11865 9134,10500 Z"/>
            <path fill="rgb(193,193,193)" stroke="none" d="M 9134,10500 L 10499,9135 11865,10500 10499,11865 9134,10500 Z M 9155,10500 L 10499,9156 11844,10500 10499,11844 9155,10500 Z"/>
            <path fill="rgb(194,194,194)" stroke="none" d="M 9155,10500 L 10499,9156 11844,10500 10499,11844 9155,10500 Z M 9178,10500 L 10499,9178 11821,10500 10499,11822 9178,10500 Z"/>
            <path fill="rgb(195,195,195)" stroke="none" d="M 9178,10500 L 10499,9178 11821,10500 10499,11822 9178,10500 Z M 9200,10500 L 10499,9201 11798,10500 10499,11799 9200,10500 Z"/>
            <path fill="rgb(196,196,196)" stroke="none" d="M 9200,10500 L 10499,9201 11798,10500 10499,11799 9200,10500 Z M 9222,10500 L 10499,9222 11777,10500 10499,11778 9222,10500 Z"/>
            <path fill="rgb(197,197,197)" stroke="none" d="M 9222,10500 L 10499,9222 11777,10500 10499,11778 9222,10500 Z M 9244,10500 L 10499,9245 11754,10500 10499,11755 9244,10500 Z"/>
            <path fill="rgb(198,198,198)" stroke="none" d="M 9244,10500 L 10499,9245 11754,10500 10499,11755 9244,10500 Z M 9265,10500 L 10499,9266 11733,10500 10499,11734 9265,10500 Z"/>
            <path fill="rgb(199,199,199)" stroke="none" d="M 9265,10500 L 10499,9266 11733,10500 10499,11734 9265,10500 Z M 9288,10500 L 10499,9289 11711,10500 10499,11711 9288,10500 Z"/>
            <path fill="rgb(200,200,200)" stroke="none" d="M 9288,10500 L 10499,9289 11711,10500 10499,11711 9288,10500 Z M 9309,10500 L 10499,9310 11689,10500 10499,11690 9309,10500 Z"/>
            <path fill="rgb(201,201,201)" stroke="none" d="M 9309,10500 L 10499,9310 11689,10500 10499,11690 9309,10500 Z M 9332,10500 L 10499,9333 11667,10500 10499,11667 9332,10500 Z"/>
            <path fill="rgb(202,202,202)" stroke="none" d="M 9332,10500 L 10499,9333 11667,10500 10499,11667 9332,10500 Z M 9354,10500 L 10499,9355 11644,10500 10499,11645 9354,10500 Z"/>
            <path fill="rgb(203,203,203)" stroke="none" d="M 9354,10500 L 10499,9355 11644,10500 10499,11645 9354,10500 Z M 9376,10500 L 10499,9376 11623,10500 10499,11624 9376,10500 Z"/>
            <path fill="rgb(204,204,204)" stroke="none" d="M 9376,10500 L 10499,9376 11623,10500 10499,11624 9376,10500 Z M 9398,10500 L 10499,9399 11600,10500 10499,11601 9398,10500 Z"/>
            <path fill="rgb(205,205,205)" stroke="none" d="M 9398,10500 L 10499,9399 11600,10500 10499,11601 9398,10500 Z M 9420,10500 L 10499,9420 11579,10500 10499,11580 9420,10500 Z"/>
            <path fill="rgb(206,206,206)" stroke="none" d="M 9420,10500 L 10499,9420 11579,10500 10499,11580 9420,10500 Z M 9442,10500 L 10499,9443 11556,10500 10499,11557 9442,10500 Z"/>
            <path fill="rgb(207,207,207)" stroke="none" d="M 9442,10500 L 10499,9443 11556,10500 10499,11557 9442,10500 Z M 9465,10500 L 10499,9466 11534,10500 10499,11534 9465,10500 Z"/>
            <path fill="rgb(208,208,208)" stroke="none" d="M 9465,10500 L 10499,9466 11534,10500 10499,11534 9465,10500 Z M 9486,10500 L 10499,9487 11513,10500 10499,11513 9486,10500 Z"/>
            <path fill="rgb(209,209,209)" stroke="none" d="M 9486,10500 L 10499,9487 11513,10500 10499,11513 9486,10500 Z M 9509,10500 L 10499,9509 11490,10500 10499,11491 9509,10500 Z"/>
            <path fill="rgb(210,210,210)" stroke="none" d="M 9509,10500 L 10499,9509 11490,10500 10499,11491 9509,10500 Z M 9530,10500 L 10499,9531 11469,10500 10499,11469 9530,10500 Z"/>
            <path fill="rgb(211,211,211)" stroke="none" d="M 9530,10500 L 10499,9531 11469,10500 10499,11469 9530,10500 Z M 9552,10500 L 10499,9553 11446,10500 10499,11447 9552,10500 Z"/>
            <path fill="rgb(212,212,212)" stroke="none" d="M 9552,10500 L 10499,9553 11446,10500 10499,11447 9552,10500 Z M 9574,10500 L 10499,9574 11425,10500 10499,11426 9574,10500 Z"/>
            <path fill="rgb(213,213,213)" stroke="none" d="M 9574,10500 L 10499,9574 11425,10500 10499,11426 9574,10500 Z M 9596,10500 L 10499,9597 11402,10500 10499,11403 9596,10500 Z"/>
            <path fill="rgb(214,214,214)" stroke="none" d="M 9596,10500 L 10499,9597 11402,10500 10499,11403 9596,10500 Z M 9619,10500 L 10499,9620 11380,10500 10499,11380 9619,10500 Z"/>
            <path fill="rgb(215,215,215)" stroke="none" d="M 9619,10500 L 10499,9620 11380,10500 10499,11380 9619,10500 Z M 9640,10500 L 10499,9641 11358,10500 10499,11359 9640,10500 Z"/>
            <path fill="rgb(216,216,216)" stroke="none" d="M 9640,10500 L 10499,9641 11358,10500 10499,11359 9640,10500 Z M 9663,10500 L 10499,9663 11336,10500 10499,11337 9663,10500 Z"/>
            <path fill="rgb(217,217,217)" stroke="none" d="M 9663,10500 L 10499,9663 11336,10500 10499,11337 9663,10500 Z M 9684,10500 L 10499,9685 11315,10500 10499,11315 9684,10500 Z"/>
            <path fill="rgb(218,218,218)" stroke="none" d="M 9684,10500 L 10499,9685 11315,10500 10499,11315 9684,10500 Z M 9707,10500 L 10499,9707 11292,10500 10499,11293 9707,10500 Z"/>
            <path fill="rgb(219,219,219)" stroke="none" d="M 9707,10500 L 10499,9707 11292,10500 10499,11293 9707,10500 Z M 9729,10500 L 10499,9730 11269,10500 10499,11270 9729,10500 Z"/>
            <path fill="rgb(220,220,220)" stroke="none" d="M 9729,10500 L 10499,9730 11269,10500 10499,11270 9729,10500 Z M 9750,10500 L 10499,9751 11248,10500 10499,11249 9750,10500 Z"/>
            <path fill="rgb(221,221,221)" stroke="none" d="M 9750,10500 L 10499,9751 11248,10500 10499,11249 9750,10500 Z M 9773,10500 L 10499,9774 11225,10500 10499,11226 9773,10500 Z"/>
            <path fill="rgb(222,222,222)" stroke="none" d="M 9773,10500 L 10499,9774 11225,10500 10499,11226 9773,10500 Z M 9794,10500 L 10499,9795 11204,10500 10499,11205 9794,10500 Z"/>
            <path fill="rgb(223,223,223)" stroke="none" d="M 9794,10500 L 10499,9795 11204,10500 10499,11205 9794,10500 Z M 9817,10500 L 10499,9818 11182,10500 10499,11182 9817,10500 Z"/>
            <path fill="rgb(224,224,224)" stroke="none" d="M 9817,10500 L 10499,9818 11182,10500 10499,11182 9817,10500 Z M 9838,10500 L 10499,9839 11160,10500 10499,11161 9838,10500 Z"/>
            <path fill="rgb(225,225,225)" stroke="none" d="M 9838,10500 L 10499,9839 11160,10500 10499,11161 9838,10500 Z M 9861,10500 L 10499,9861 11138,10500 10499,11139 9861,10500 Z"/>
            <path fill="rgb(226,226,226)" stroke="none" d="M 9861,10500 L 10499,9861 11138,10500 10499,11139 9861,10500 Z M 9883,10500 L 10499,9884 11115,10500 10499,11116 9883,10500 Z"/>
            <path fill="rgb(227,227,227)" stroke="none" d="M 9883,10500 L 10499,9884 11115,10500 10499,11116 9883,10500 Z M 9905,10500 L 10499,9905 11094,10500 10499,11095 9905,10500 Z"/>
            <path fill="rgb(228,228,228)" stroke="none" d="M 9905,10500 L 10499,9905 11094,10500 10499,11095 9905,10500 Z M 9927,10500 L 10499,9928 11071,10500 10499,11072 9927,10500 Z"/>
            <path fill="rgb(229,229,229)" stroke="none" d="M 9927,10500 L 10499,9928 11071,10500 10499,11072 9927,10500 Z M 9948,10500 L 10499,9949 11050,10500 10499,11051 9948,10500 Z"/>
            <path fill="rgb(230,230,230)" stroke="none" d="M 9948,10500 L 10499,9949 11050,10500 10499,11051 9948,10500 Z M 9971,10500 L 10499,9972 11028,10500 10499,11028 9971,10500 Z"/>
            <path fill="rgb(231,231,231)" stroke="none" d="M 9971,10500 L 10499,9972 11028,10500 10499,11028 9971,10500 Z M 9994,10500 L 10499,9994 11005,10500 10499,11006 9994,10500 Z"/>
            <path fill="rgb(232,232,232)" stroke="none" d="M 9994,10500 L 10499,9994 11005,10500 10499,11006 9994,10500 Z M 10015,10500 L 10499,10016 10984,10500 10499,10984 10015,10500 Z"/>
            <path fill="rgb(233,233,233)" stroke="none" d="M 10015,10500 L 10499,10016 10984,10500 10499,10984 10015,10500 Z M 10038,10500 L 10499,10038 10961,10500 10499,10962 10038,10500 Z"/>
            <path fill="rgb(234,234,234)" stroke="none" d="M 10038,10500 L 10499,10038 10961,10500 10499,10962 10038,10500 Z M 10059,10500 L 10499,10059 10940,10500 10499,10941 10059,10500 Z"/>
            <path fill="rgb(235,235,235)" stroke="none" d="M 10059,10500 L 10499,10059 10940,10500 10499,10941 10059,10500 Z M 10081,10500 L 10499,10082 10917,10500 10499,10918 10081,10500 Z"/>
            <path fill="rgb(236,236,236)" stroke="none" d="M 10081,10500 L 10499,10082 10917,10500 10499,10918 10081,10500 Z M 10103,10500 L 10499,10103 10896,10500 10499,10897 10103,10500 Z"/>
            <path fill="rgb(237,237,237)" stroke="none" d="M 10103,10500 L 10499,10103 10896,10500 10499,10897 10103,10500 Z M 10125,10500 L 10499,10126 10873,10500 10499,10874 10125,10500 Z"/>
            <path fill="rgb(238,238,238)" stroke="none" d="M 10125,10500 L 10499,10126 10873,10500 10499,10874 10125,10500 Z M 10148,10500 L 10499,10149 10851,10500 10499,10851 10148,10500 Z"/>
            <path fill="rgb(239,239,239)" stroke="none" d="M 10148,10500 L 10499,10149 10851,10500 10499,10851 10148,10500 Z M 10169,10500 L 10499,10170 10830,10500 10499,10830 10169,10500 Z"/>
            <path fill="rgb(240,240,240)" stroke="none" d="M 10169,10500 L 10499,10170 10830,10500 10499,10830 10169,10500 Z M 10192,10500 L 10499,10192 10807,10500 10499,10808 10192,10500 Z"/>
            <path fill="rgb(241,241,241)" stroke="none" d="M 10192,10500 L 10499,10192 10807,10500 10499,10808 10192,10500 Z M 10213,10500 L 10499,10214 10786,10500 10499,10786 10213,10500 Z"/>
            <path fill="rgb(242,242,242)" stroke="none" d="M 10213,10500 L 10499,10214 10786,10500 10499,10786 10213,10500 Z M 10236,10500 L 10499,10236 10763,10500 10499,10764 10236,10500 Z"/>
            <path fill="rgb(243,243,243)" stroke="none" d="M 10236,10500 L 10499,10236 10763,10500 10499,10764 10236,10500 Z M 10258,10500 L 10499,10259 10740,10500 10499,10741 10258,10500 Z"/>
            <path fill="rgb(244,244,244)" stroke="none" d="M 10258,10500 L 10499,10259 10740,10500 10499,10741 10258,10500 Z M 10279,10500 L 10499,10280 10719,10500 10499,10720 10279,10500 Z"/>
            <path fill="rgb(245,245,245)" stroke="none" d="M 10279,10500 L 10499,10280 10719,10500 10499,10720 10279,10500 Z M 10302,10500 L 10499,10303 10697,10500 10499,10697 10302,10500 Z"/>
            <path fill="rgb(246,246,246)" stroke="none" d="M 10302,10500 L 10499,10303 10697,10500 10499,10697 10302,10500 Z M 10323,10500 L 10499,10324 10675,10500 10499,10676 10323,10500 Z"/>
            <path fill="rgb(247,247,247)" stroke="none" d="M 10323,10500 L 10499,10324 10675,10500 10499,10676 10323,10500 Z M 10346,10500 L 10499,10347 10653,10500 10499,10653 10346,10500 Z"/>
            <path fill="rgb(248,248,248)" stroke="none" d="M 10346,10500 L 10499,10347 10653,10500 10499,10653 10346,10500 Z M 10367,10500 L 10499,10368 10632,10500 10499,10632 10367,10500 Z"/>
            <path fill="rgb(249,249,249)" stroke="none" d="M 10367,10500 L 10499,10368 10632,10500 10499,10632 10367,10500 Z M 10390,10500 L 10499,10390 10609,10500 10499,10610 10390,10500 Z"/>
            <path fill="rgb(250,250,250)" stroke="none" d="M 10390,10500 L 10499,10390 10609,10500 10499,10610 10390,10500 Z M 10412,10500 L 10499,10413 10586,10500 10499,10587 10412,10500 Z"/>
            <path fill="rgb(251,251,251)" stroke="none" d="M 10412,10500 L 10499,10413 10586,10500 10499,10587 10412,10500 Z M 10434,10500 L 10499,10434 10565,10500 10499,10566 10434,10500 Z"/>
            <path fill="rgb(252,252,252)" stroke="none" d="M 10434,10500 L 10499,10434 10565,10500 10499,10566 10434,10500 Z M 10456,10500 L 10499,10457 10542,10500 10499,10543 10456,10500 Z"/>
            <path fill="rgb(253,253,253)" stroke="none" d="M 10456,10500 L 10499,10457 10542,10500 10499,10543 10456,10500 Z M 10477,10500 L 10499,10478 10521,10500 10499,10522 10477,10500 Z"/>
            <path fill="rgb(255,255,255)" stroke="none" d="M 10477,10500 L 10499,10478 10521,10500 10499,10522 10477,10500 Z"/>
           </g>
          </pattern>
         </defs>
         <path style="fill:url(#pattern1)" d="M 10500,13000 L 8000,13000 8000,8000 13000,8000 13000,13000 10500,13000 Z"/>
        </g>
       </g>
      </g>
      <g class="com.sun.star.drawing.LineShape">
       <g id="id9">
        <rect class="BoundingBox" stroke="none" fill="none" x="2894" y="2894" width="10213" height="10213"/>
        <path fill="none" stroke="rgb(255,255,255)" stroke-width="212" stroke-linejoin="round" stroke-linecap="round" d="M 3000,13000 L 13000,3000"/>
       </g>
      </g>
     </g>
    </g>
   </g>
  </g>
 </g>
</svg>