<?xml version="1.0" encoding="UTF-8" standalone="no"?>
<svg
   xmlns:ooo="http://xml.openoffice.org/svg/export"
   xmlns:dc="http://purl.org/dc/elements/1.1/"
   xmlns:cc="http://creativecommons.org/ns#"
   xmlns:rdf="http://www.w3.org/1999/02/22-rdf-syntax-ns#"
   xmlns:svg="http://www.w3.org/2000/svg"
   xmlns="http://www.w3.org/2000/svg"
   xmlns:xlink="http://www.w3.org/1999/xlink"
   xmlns:sodipodi="http://sodipodi.sourceforge.net/DTD/sodipodi-0.dtd"
   xmlns:inkscape="http://www.inkscape.org/namespaces/inkscape"
   version="1.2"
   width="124.23mm"
   height="124.23mm"
   viewBox="1789 1789 12423 12423"
   preserveAspectRatio="xMidYMid"
   fill-rule="evenodd"
   stroke-width="28.222"
   stroke-linejoin="round"
   xml:space="preserve"
   id="svg2"
   inkscape:version="0.91 r13725"
   sodipodi:docname="smoothscaling.svg"><metadata
     id="metadata567"><rdf:RDF><cc:Work
         rdf:about=""><dc:format>image/svg+xml</dc:format><dc:type
           rdf:resource="http://purl.org/dc/dcmitype/StillImage" /><dc:title /></cc:Work></rdf:RDF></metadata><sodipodi:namedview
     pagecolor="#ffffff"
     bordercolor="#666666"
     borderopacity="1"
     objecttolerance="10"
     gridtolerance="10"
     guidetolerance="10"
     inkscape:pageopacity="0"
     inkscape:pageshadow="2"
     inkscape:window-width="1680"
     inkscape:window-height="991"
     id="namedview565"
     showgrid="false"
     inkscape:zoom="0.53613815"
     inkscape:cx="-119.37221"
     inkscape:cy="220.09253"
     inkscape:window-x="0"
     inkscape:window-y="0"
     inkscape:window-maximized="1"
     inkscape:current-layer="id1" /><defs
     class="ClipPathGroup"
     id="defs4"><linearGradient
       inkscape:collect="always"
       id="linearGradient4142"><stop
         style="stop-color:#000000;stop-opacity:1;"
         offset="0"
         id="stop4144" /><stop
         style="stop-color:#cccccc;stop-opacity:1"
         offset="1"
         id="stop4146" /></linearGradient><clipPath
       id="presentation_clip_path"
       clipPathUnits="userSpaceOnUse"><rect
         x="1789"
         y="1789"
         width="12423"
         height="12423"
         id="rect7" /></clipPath><linearGradient
       inkscape:collect="always"
       xlink:href="#linearGradient4142"
       id="linearGradient4148"
       x1="8632.1777"
       y1="8790.0977"
       x2="12316.966"
       y2="12580.165"
       gradientUnits="userSpaceOnUse" /></defs><defs
     class="TextShapeIndex"
     id="defs9"><g
       ooo:slide="id1"
       ooo:id-list="id3 id4 id5 id6 id7 id8 id9"
       id="g11" /></defs><defs
     class="EmbeddedBulletChars"
     id="defs13"><g
       id="bullet-char-template(57356)"
       transform="scale(0.00048828125,-0.00048828125)"><path
         d="M 580,1141 L 1163,571 580,0 -4,571 580,1141 Z"
         id="path16" /></g><g
       id="bullet-char-template(57354)"
       transform="scale(0.00048828125,-0.00048828125)"><path
         d="M 8,1128 L 1137,1128 1137,0 8,0 8,1128 Z"
         id="path19" /></g><g
       id="bullet-char-template(10146)"
       transform="scale(0.00048828125,-0.00048828125)"><path
         d="M 174,0 L 602,739 174,1481 1456,739 174,0 Z M 1358,739 L 309,1346 659,739 1358,739 Z"
         id="path22" /></g><g
       id="bullet-char-template(10132)"
       transform="scale(0.00048828125,-0.00048828125)"><path
         d="M 2015,739 L 1276,0 717,0 1260,543 174,543 174,936 1260,936 717,1481 1274,1481 2015,739 Z"
         id="path25" /></g><g
       id="bullet-char-template(10007)"
       transform="scale(0.00048828125,-0.00048828125)"><path
         d="M 0,-2 C -7,14 -16,27 -25,37 L 356,567 C 262,823 215,952 215,954 215,979 228,992 255,992 264,992 276,990 289,987 310,991 331,999 354,1012 L 381,999 492,748 772,1049 836,1024 860,1049 C 881,1039 901,1025 922,1006 886,937 835,863 770,784 769,783 710,716 594,584 L 774,223 C 774,196 753,168 711,139 L 727,119 C 717,90 699,76 672,76 641,76 570,178 457,381 L 164,-76 C 142,-110 111,-127 72,-127 30,-127 9,-110 8,-76 1,-67 -2,-52 -2,-32 -2,-23 -1,-13 0,-2 Z"
         id="path28" /></g><g
       id="bullet-char-template(10004)"
       transform="scale(0.00048828125,-0.00048828125)"><path
         d="M 285,-33 C 182,-33 111,30 74,156 52,228 41,333 41,471 41,549 55,616 82,672 116,743 169,778 240,778 293,778 328,747 346,684 L 369,508 C 377,444 397,411 428,410 L 1163,1116 C 1174,1127 1196,1133 1229,1133 1271,1133 1292,1118 1292,1087 L 1292,965 C 1292,929 1282,901 1262,881 L 442,47 C 390,-6 338,-33 285,-33 Z"
         id="path31" /></g><g
       id="bullet-char-template(9679)"
       transform="scale(0.00048828125,-0.00048828125)"><path
         d="M 813,0 C 632,0 489,54 383,161 276,268 223,411 223,592 223,773 276,916 383,1023 489,1130 632,1184 813,1184 992,1184 1136,1130 1245,1023 1353,916 1407,772 1407,592 1407,412 1353,268 1245,161 1136,54 992,0 813,0 Z"
         id="path34" /></g><g
       id="bullet-char-template(8226)"
       transform="scale(0.00048828125,-0.00048828125)"><path
         d="M 346,457 C 273,457 209,483 155,535 101,586 74,649 74,723 74,796 101,859 155,911 209,963 273,989 346,989 419,989 480,963 531,910 582,859 608,796 608,723 608,648 583,586 532,535 482,483 420,457 346,457 Z"
         id="path37" /></g><g
       id="bullet-char-template(8211)"
       transform="scale(0.00048828125,-0.00048828125)"><path
         d="M -4,459 L 1135,459 1135,606 -4,606 -4,459 Z"
         id="path40" /></g></defs><defs
     class="TextEmbeddedBitmaps"
     id="defs42" /><g
     class="SlideGroup"
     id="g44"><g
       id="g46"><g
         id="id1"
         class="Slide"
         clip-path="url(#presentation_clip_path)"><g
           class="com.sun.star.drawing.CustomShape"
           id="g53"><g
             id="id3"><rect
               class="BoundingBox"
               x="1788"
               y="1788"
               width="12425"
               height="12425"
               id="rect56"
               style="fill:none;stroke:none" /><path
               d="m 8000,14000 -6000,0 0,-12000 12000,0 0,12000 -6000,0 z"
               id="path58"
               inkscape:connector-curvature="0"
               style="fill:#000000;stroke:none" /><path
               d="m 8000,14000 -6000,0 0,-12000 12000,0 0,12000 -6000,0 z"
               id="path60"
               inkscape:connector-curvature="0"
               style="fill:none;stroke:#000000;stroke-width:423;stroke-linecap:round;stroke-linejoin:round" /></g></g><g
           class="com.sun.star.drawing.CustomShape"
           id="g62"><g
             id="id4"><rect
               class="BoundingBox"
               x="3000"
               y="3000"
               width="2501"
               height="2501"
               id="rect65"
               style="fill:none;stroke:none" /><path
               d="m 4250,5500 -1250,0 0,-2500 2500,0 0,2500 -1250,0 z"
               id="path67"
               inkscape:connector-curvature="0"
               style="fill:#999999;stroke:none" /></g></g><g
           class="com.sun.star.drawing.CustomShape"
           id="g69"><g
             id="id5"><rect
               class="BoundingBox"
               x="5500"
               y="3000"
               width="2501"
               height="2501"
               id="rect72"
               style="fill:none;stroke:none" /><path
               d="m 6750,5500 -1250,0 0,-2500 2500,0 0,2500 -1250,0 z"
               id="path74"
               inkscape:connector-curvature="0"
               style="fill:#dddddd;stroke:none" /></g></g><g
           class="com.sun.star.drawing.CustomShape"
           id="g76"><g
             id="id6"><rect
               class="BoundingBox"
               x="3000"
               y="5500"
               width="2501"
               height="2501"
               id="rect79"
               style="fill:none;stroke:none" /><path
               d="m 4250,8000 -1250,0 0,-2500 2500,0 0,2500 -1250,0 z"
               id="path81"
               inkscape:connector-curvature="0"
               style="fill:#dddddd;stroke:none" /></g></g><g
           class="com.sun.star.drawing.CustomShape"
           id="g83"><g
             id="id7"><rect
               class="BoundingBox"
               x="5500"
               y="5500"
               width="2501"
               height="2501"
               id="rect86"
               style="fill:none;stroke:none" /><path
               d="m 6750,8000 -1250,0 0,-2500 2500,0 0,2500 -1250,0 z"
               id="path88"
               inkscape:connector-curvature="0"
               style="fill:#666666;stroke:none" /></g></g><g
           class="com.sun.star.drawing.CustomShape"
           id="g90"
           style="image-rendering:optimizeSpeed;fill-opacity:1;fill:url(#linearGradient4148)"><g
             id="id8"
             style="fill-opacity:1;fill:url(#linearGradient4148)"><rect
               class="BoundingBox"
               x="8000"
               y="8000"
               width="5001"
               height="5001"
               id="rect93"
               style="fill:url(#linearGradient4148);stroke:none;fill-opacity:1" /><g
               id="g95"
               style="fill-opacity:1;fill:url(#linearGradient4148)"><path
                 style="fill:url(#linearGradient4148);fill-opacity:1"
                 d="m 10500,13000 -2500,0 0,-5000 5000,0 0,5000 -2500,0 z"
                 id="path556"
                 inkscape:connector-curvature="0" /></g></g></g><g
           class="com.sun.star.drawing.LineShape"
           id="g558"
           style="stroke-width:423.33331266;stroke-miterlimit:4;stroke-dasharray:none"><g
             id="id9"
             style="stroke-width:423.33331266;stroke-miterlimit:4;stroke-dasharray:none"><rect
               class="BoundingBox"
               x="2894"
               y="2894"
               width="10213"
               height="10213"
               id="rect561"
               style="fill:none;stroke:none;stroke-width:423.33331266;stroke-miterlimit:4;stroke-dasharray:none" /><path
               d="M 3000,13000 13000,3000"
               id="path563"
               inkscape:connector-curvature="0"
               style="fill:none;stroke:#ffffff;stroke-width:423.33331266;stroke-linecap:round;stroke-linejoin:round;stroke-miterlimit:4;stroke-dasharray:none" /></g></g></g></g></g></svg>