<?xml version="1.0" encoding="UTF-8"?>
<!DOCTYPE svg PUBLIC "-//W3C//DTD SVG 1.1//EN" "http://www.w3.org/Graphics/SVG/1.1/DTD/svg11.dtd">
<svg version="1.2" width="20.06mm" height="20.06mm" viewBox="4647 18047 2006 2006" preserveAspectRatio="xMidYMid" fill-rule="evenodd" stroke-width="28.222" stroke-linejoin="round" xmlns="http://www.w3.org/2000/svg" xmlns:ooo="http://xml.openoffice.org/svg/export" xmlns:xlink="http://www.w3.org/1999/xlink" xmlns:presentation="http://sun.com/xmlns/staroffice/presentation" xmlns:smil="http://www.w3.org/2001/SMIL20/" xmlns:anim="urn:oasis:names:tc:opendocument:xmlns:animation:1.0" xml:space="preserve">
 <defs class="ClipPathGroup">
  <clipPath id="presentation_clip_path" clipPathUnits="userSpaceOnUse">
   <rect x="4647" y="18047" width="2006" height="2006"/>
  </clipPath>
  <clipPath id="presentation_clip_path_shrink" clipPathUnits="userSpaceOnUse">
   <rect x="4649" y="18049" width="2002" height="2002"/>
  </clipPath>
 </defs>
 <defs class="TextShapeIndex">
  <g ooo:slide="id1" ooo:id-list="id3 id4 id5 id6"/>
 </defs>
 <defs class="EmbeddedBulletChars">
  <g id="bullet-char-template(57356)" transform="scale(0.00048828125,-0.00048828125)">
   <path d="M 580,1141 L 1163,571 580,0 -4,571 580,1141 Z"/>
  </g>
  <g id="bullet-char-template(57354)" transform="scale(0.00048828125,-0.00048828125)">
   <path d="M 8,1128 L 1137,1128 1137,0 8,0 8,1128 Z"/>
  </g>
  <g id="bullet-char-template(10146)" transform="scale(0.00048828125,-0.00048828125)">
   <path d="M 174,0 L 602,739 174,1481 1456,739 174,0 Z M 1358,739 L 309,1346 659,739 1358,739 Z"/>
  </g>
  <g id="bullet-char-template(10132)" transform="scale(0.00048828125,-0.00048828125)">
   <path d="M 2015,739 L 1276,0 717,0 1260,543 174,543 174,936 1260,936 717,1481 1274,1481 2015,739 Z"/>
  </g>
  <g id="bullet-char-template(10007)" transform="scale(0.00048828125,-0.00048828125)">
   <path d="M 0,-2 C -7,14 -16,27 -25,37 L 356,567 C 262,823 215,952 215,954 215,979 228,992 255,992 264,992 276,990 289,987 310,991 331,999 354,1012 L 381,999 492,748 772,1049 836,1024 860,1049 C 881,1039 901,1025 922,1006 886,937 835,863 770,784 769,783 710,716 594,584 L 774,223 C 774,196 753,168 711,139 L 727,119 C 717,90 699,76 672,76 641,76 570,178 457,381 L 164,-76 C 142,-110 111,-127 72,-127 30,-127 9,-110 8,-76 1,-67 -2,-52 -2,-32 -2,-23 -1,-13 0,-2 Z"/>
  </g>
  <g id="bullet-char-template(10004)" transform="scale(0.00048828125,-0.00048828125)">
   <path d="M 285,-33 C 182,-33 111,30 74,156 52,228 41,333 41,471 41,549 55,616 82,672 116,743 169,778 240,778 293,778 328,747 346,684 L 369,508 C 377,444 397,411 428,410 L 1163,1116 C 1174,1127 1196,1133 1229,1133 1271,1133 1292,1118 1292,1087 L 1292,965 C 1292,929 1282,901 1262,881 L 442,47 C 390,-6 338,-33 285,-33 Z"/>
  </g>
  <g id="bullet-char-template(9679)" transform="scale(0.00048828125,-0.00048828125)">
   <path d="M 813,0 C 632,0 489,54 383,161 276,268 223,411 223,592 223,773 276,916 383,1023 489,1130 632,1184 813,1184 992,1184 1136,1130 1245,1023 1353,916 1407,772 1407,592 1407,412 1353,268 1245,161 1136,54 992,0 813,0 Z"/>
  </g>
  <g id="bullet-char-template(8226)" transform="scale(0.00048828125,-0.00048828125)">
   <path d="M 346,457 C 273,457 209,483 155,535 101,586 74,649 74,723 74,796 101,859 155,911 209,963 273,989 346,989 419,989 480,963 531,910 582,859 608,796 608,723 608,648 583,586 532,535 482,483 420,457 346,457 Z"/>
  </g>
  <g id="bullet-char-template(8211)" transform="scale(0.00048828125,-0.00048828125)">
   <path d="M -4,459 L 1135,459 1135,606 -4,606 -4,459 Z"/>
  </g>
  <g id="bullet-char-template(61548)" transform="scale(0.00048828125,-0.00048828125)">
   <path d="M 173,740 C 173,903 231,1043 346,1159 462,1274 601,1332 765,1332 928,1332 1067,1274 1183,1159 1299,1043 1357,903 1357,740 1357,577 1299,437 1183,322 1067,206 928,148 765,148 601,148 462,206 346,322 231,437 173,577 173,740 Z"/>
  </g>
 </defs>
 <defs class="TextEmbeddedBitmaps"/>
 <g class="SlideGroup">
  <g>
   <g id="container-id1">
    <g id="id1" class="Slide" clip-path="url(#presentation_clip_path)">
     <g class="Page">
      <g class="Group">
       <g class="Group">
        <g class="com.sun.star.drawing.PolyPolygonShape">
         <g id="id3">
          <rect class="BoundingBox" stroke="none" fill="none" x="4970" y="18358" width="368" height="1361"/>
          <path fill="rgb(0,0,0)" stroke="none" d="M 5336,19718 L 5180,19718 5180,18931 5182,18802 5184,18660 5152,18720 5140,18740 5130,18754 5046,18880 4970,18707 5208,18358 5336,18358 5336,19718 Z"/>
         </g>
        </g>
        <g class="com.sun.star.drawing.PolyPolygonShape">
         <g id="id4">
          <rect class="BoundingBox" stroke="none" fill="none" x="5559" y="18659" width="179" height="1085"/>
          <path fill="rgb(0,0,0)" stroke="none" d="M 5559,19585 L 5560,19566 5561,19548 5563,19532 5565,19516 5566,19509 5568,19502 5570,19496 5572,19489 5575,19483 5577,19478 5579,19472 5582,19467 5585,19462 5588,19458 5591,19453 5595,19449 5598,19446 5602,19443 5606,19440 5610,19437 5619,19433 5628,19429 5638,19428 5648,19427 5658,19428 5668,19430 5677,19433 5685,19437 5690,19440 5693,19443 5697,19446 5700,19450 5704,19454 5707,19458 5710,19463 5713,19468 5716,19473 5718,19479 5721,19484 5723,19491 5725,19497 5727,19504 5729,19510 5730,19518 5733,19533 5735,19549 5736,19566 5736,19585 5736,19603 5735,19620 5733,19636 5730,19651 5729,19658 5727,19665 5725,19671 5723,19678 5721,19684 5718,19690 5716,19695 5713,19701 5710,19706 5707,19711 5704,19715 5700,19719 5697,19723 5693,19726 5689,19730 5685,19732 5677,19737 5668,19740 5658,19742 5648,19743 5638,19742 5628,19740 5619,19737 5610,19733 5607,19730 5603,19727 5599,19723 5595,19720 5592,19716 5589,19711 5585,19707 5583,19702 5580,19696 5577,19691 5575,19685 5572,19679 5570,19672 5569,19666 5567,19659 5565,19652 5564,19644 5563,19637 5561,19621 5560,19603 5559,19585 Z M 5559,18817 L 5560,18798 5561,18780 5563,18764 5565,18748 5566,18741 5568,18734 5570,18728 5572,18721 5575,18715 5577,18710 5579,18704 5582,18699 5585,18694 5588,18690 5591,18685 5595,18681 5598,18678 5602,18675 5606,18672 5610,18669 5619,18665 5628,18661 5638,18660 5648,18659 5658,18660 5668,18662 5677,18665 5685,18669 5690,18672 5693,18675 5697,18678 5700,18682 5704,18686 5707,18690 5710,18695 5713,18700 5716,18705 5718,18711 5721,18716 5723,18723 5725,18729 5727,18736 5729,18742 5730,18750 5733,18765 5735,18781 5736,18798 5736,18817 5736,18835 5735,18853 5733,18869 5731,18876 5730,18884 5729,18891 5727,18898 5725,18904 5723,18911 5721,18917 5718,18923 5716,18928 5712,18934 5710,18939 5706,18943 5703,18948 5700,18952 5696,18955 5692,18959 5689,18962 5685,18965 5677,18969 5667,18972 5658,18974 5648,18975 5638,18974 5628,18972 5619,18969 5610,18965 5607,18962 5603,18959 5599,18956 5595,18952 5592,18948 5589,18944 5585,18939 5583,18934 5580,18929 5577,18923 5575,18918 5572,18911 5570,18905 5569,18898 5567,18892 5565,18884 5564,18877 5563,18869 5561,18853 5560,18836 5559,18817 Z"/>
         </g>
        </g>
        <g class="com.sun.star.drawing.PolyPolygonShape">
         <g id="id5">
          <rect class="BoundingBox" stroke="none" fill="none" x="5855" y="18358" width="368" height="1361"/>
          <path fill="rgb(0,0,0)" stroke="none" d="M 6221,19718 L 6065,19718 6065,18931 6067,18802 6069,18660 6037,18720 6025,18740 6015,18754 5931,18880 5855,18707 6093,18358 6221,18358 6221,19718 Z"/>
         </g>
        </g>
       </g>
       <g class="com.sun.star.drawing.CustomShape">
        <g id="id6">
         <rect class="BoundingBox" stroke="none" fill="none" x="4647" y="18047" width="2007" height="2007"/>
         <path fill="none" stroke="rgb(0,0,0)" stroke-width="106" stroke-linejoin="round" d="M 5650,20000 L 4700,20000 4700,18100 6600,18100 6600,20000 5650,20000 Z"/>
        </g>
       </g>
      </g>
     </g>
    </g>
   </g>
  </g>
 </g>
</svg>